<svg xmlns="http://www.w3.org/2000/svg" xmlns:xlink="http://www.w3.org/1999/xlink" width="1280" zoomAndPan="magnify" viewBox="0 0 960 540.000001" height="720" preserveAspectRatio="xMidYMid meet" version="1.0"><defs><clipPath id="2957424689"><path d="M 787 361 L 931.789062 361 L 931.789062 505.65625 L 787 505.65625 Z M 787 361 " clip-rule="nonzero"/></clipPath><clipPath id="807a50a093"><path d="M 750.871094 311.261719 L 890 311.261719 L 890 470 L 750.871094 470 Z M 750.871094 311.261719 " clip-rule="nonzero"/></clipPath><clipPath id="07d7912f25"><path d="M 33.128906 471.410156 L 114.933594 471.410156 L 114.933594 505.90625 L 33.128906 505.90625 Z M 33.128906 471.410156 " clip-rule="nonzero"/></clipPath><clipPath id="78f72924a9"><path d="M 140.242188 471.410156 L 222.046875 471.410156 L 222.046875 505.90625 L 140.242188 505.90625 Z M 140.242188 471.410156 " clip-rule="nonzero"/></clipPath><clipPath id="ff7164cacf"><path d="M 247.515625 471.410156 L 329.320312 471.410156 L 329.320312 505.90625 L 247.515625 505.90625 Z M 247.515625 471.410156 " clip-rule="nonzero"/></clipPath></defs><g clip-path="url(#2957424689)"><path fill="#000000" d="M 787.003906 361.507812 L 787.003906 505.902344 L 931.777344 505.902344 L 931.777344 361.507812 Z M 812.109375 480.863281 L 812.109375 386.558594 L 906.671875 386.558594 L 906.671875 480.863281 Z M 812.109375 480.863281 " fill-opacity="1" fill-rule="nonzero"/></g><g clip-path="url(#807a50a093)"><path fill="#fbb03b" d="M 884.859375 311.261719 L 889.191406 311.261719 L 889.191406 469.585938 L 750.636719 469.585938 L 750.636719 465.265625 L 884.859375 465.265625 Z M 871.9375 450.804688 L 750.644531 450.804688 L 750.644531 455.125 L 876.269531 455.125 L 876.269531 311.261719 L 871.9375 311.261719 Z M 859.007812 436.347656 L 750.636719 436.347656 L 750.636719 440.671875 L 863.34375 440.671875 L 863.34375 311.261719 L 859.007812 311.261719 Z M 846.089844 421.894531 L 750.644531 421.894531 L 750.644531 426.214844 L 850.421875 426.214844 L 850.421875 311.261719 L 846.089844 311.261719 Z M 833.160156 407.441406 L 750.636719 407.441406 L 750.636719 411.761719 L 837.492188 411.761719 L 837.492188 311.261719 L 833.160156 311.261719 Z M 833.160156 407.441406 " fill-opacity="1" fill-rule="nonzero"/></g><g clip-path="url(#07d7912f25)"><path fill="#000000" d="M 39.523438 471.414062 L 33.128906 477.507812 L 43.789062 488.65625 L 33.128906 499.800781 L 39.523438 505.902344 L 56.015625 488.65625 Z M 39.484375 503.816406 L 35.210938 499.753906 L 45.824219 488.65625 L 35.210938 477.558594 L 39.484375 473.492188 L 53.988281 488.667969 Z M 98.445312 471.414062 L 92.046875 477.507812 L 102.707031 488.65625 L 92.046875 499.800781 L 98.445312 505.902344 L 114.933594 488.660156 Z M 98.398438 503.816406 L 94.132812 499.753906 L 104.746094 488.65625 L 94.132812 477.558594 L 98.398438 473.492188 L 112.898438 488.667969 Z M 78.804688 471.414062 L 72.40625 477.507812 L 83.066406 488.65625 L 72.40625 499.800781 L 78.804688 505.902344 L 95.296875 488.660156 Z M 78.757812 503.816406 L 74.492188 499.753906 L 85.101562 488.65625 L 74.492188 477.558594 L 78.757812 473.492188 L 93.257812 488.667969 Z M 59.164062 471.414062 L 52.757812 477.507812 L 63.417969 488.65625 L 52.757812 499.800781 L 59.164062 505.902344 L 75.65625 488.660156 Z M 59.113281 503.816406 L 54.851562 499.753906 L 65.472656 488.65625 L 54.851562 477.558594 L 59.113281 473.492188 L 73.617188 488.667969 Z M 59.113281 503.816406 " fill-opacity="1" fill-rule="nonzero"/></g><g clip-path="url(#78f72924a9)"><path fill="#000000" d="M 146.636719 471.414062 L 140.242188 477.507812 L 150.902344 488.65625 L 140.242188 499.800781 L 146.636719 505.902344 L 163.128906 488.65625 Z M 146.601562 503.816406 L 142.324219 499.753906 L 152.9375 488.65625 L 142.324219 477.558594 L 146.601562 473.492188 L 161.101562 488.667969 Z M 205.558594 471.414062 L 199.160156 477.507812 L 209.820312 488.65625 L 199.160156 499.800781 L 205.558594 505.902344 L 222.050781 488.660156 Z M 205.511719 503.816406 L 201.246094 499.753906 L 211.859375 488.65625 L 201.246094 477.558594 L 205.511719 473.492188 L 220.011719 488.667969 Z M 185.917969 471.414062 L 179.519531 477.507812 L 190.179688 488.65625 L 179.519531 499.800781 L 185.917969 505.902344 L 202.410156 488.660156 Z M 185.871094 503.816406 L 181.605469 499.753906 L 192.214844 488.65625 L 181.605469 477.558594 L 185.871094 473.492188 L 200.371094 488.667969 Z M 166.277344 471.414062 L 159.871094 477.507812 L 170.53125 488.65625 L 159.871094 499.800781 L 166.277344 505.902344 L 182.769531 488.660156 Z M 166.230469 503.816406 L 161.964844 499.753906 L 172.585938 488.65625 L 161.964844 477.558594 L 166.230469 473.492188 L 180.730469 488.667969 Z M 166.230469 503.816406 " fill-opacity="1" fill-rule="nonzero"/></g><g clip-path="url(#ff7164cacf)"><path fill="#000000" d="M 253.910156 471.414062 L 247.515625 477.507812 L 258.175781 488.65625 L 247.515625 499.800781 L 253.910156 505.902344 L 270.402344 488.65625 Z M 253.875 503.816406 L 249.597656 499.753906 L 260.210938 488.65625 L 249.597656 477.558594 L 253.875 473.492188 L 268.375 488.667969 Z M 312.832031 471.414062 L 306.433594 477.507812 L 317.09375 488.65625 L 306.433594 499.800781 L 312.832031 505.902344 L 329.324219 488.660156 Z M 312.785156 503.816406 L 308.519531 499.753906 L 319.132812 488.65625 L 308.519531 477.558594 L 312.785156 473.492188 L 327.285156 488.667969 Z M 293.191406 471.414062 L 286.792969 477.507812 L 297.453125 488.65625 L 286.792969 499.800781 L 293.191406 505.902344 L 309.683594 488.660156 Z M 293.144531 503.816406 L 288.878906 499.753906 L 299.488281 488.65625 L 288.878906 477.558594 L 293.144531 473.492188 L 307.644531 488.667969 Z M 273.550781 471.414062 L 267.144531 477.507812 L 277.804688 488.65625 L 267.144531 499.800781 L 273.550781 505.902344 L 290.042969 488.660156 Z M 273.5 503.816406 L 269.238281 499.753906 L 279.859375 488.65625 L 269.238281 477.558594 L 273.5 473.492188 L 288.003906 488.667969 Z M 273.5 503.816406 " fill-opacity="1" fill-rule="nonzero"/></g></svg>