<svg xmlns="http://www.w3.org/2000/svg" xmlns:xlink="http://www.w3.org/1999/xlink" width="1280" zoomAndPan="magnify" viewBox="0 0 960 437.999984" height="584" preserveAspectRatio="xMidYMid meet" version="1.0"><defs><clipPath id="7ff9a71a69"><path d="M 1 268.050781 L 32 268.050781 L 32 311 L 1 311 Z M 1 268.050781 " clip-rule="nonzero"/></clipPath><clipPath id="f36e950f1f"><path d="M 705.882812 1 L 959.992188 1 L 959.992188 216 L 705.882812 216 Z M 705.882812 1 " clip-rule="nonzero"/></clipPath><clipPath id="b7afb635f4"><path d="M 745 0 L 959.992188 0 L 959.992188 188 L 745 188 Z M 745 0 " clip-rule="nonzero"/></clipPath><clipPath id="e67ec8e295"><path d="M 792 0 L 959.992188 0 L 959.992188 165 L 792 165 Z M 792 0 " clip-rule="nonzero"/></clipPath><clipPath id="720f82f6e9"><path d="M 812 0 L 959.992188 0 L 959.992188 146 L 812 146 Z M 812 0 " clip-rule="nonzero"/></clipPath><clipPath id="e25d1c6d23"><path d="M 828 0 L 959.992188 0 L 959.992188 128 L 828 128 Z M 828 0 " clip-rule="nonzero"/></clipPath><clipPath id="da1d47613d"><path d="M 842 0 L 959.992188 0 L 959.992188 112 L 842 112 Z M 842 0 " clip-rule="nonzero"/></clipPath><clipPath id="4b75a13de2"><path d="M 854 0 L 959.992188 0 L 959.992188 99 L 854 99 Z M 854 0 " clip-rule="nonzero"/></clipPath></defs><path fill="#eeeeee" d="M 9.496094 435.128906 C 9.867188 434.621094 9.15625 434.046875 8.683594 434.316406 C 8.414062 434.453125 8.109375 434.28125 7.871094 434.148438 C 7.5 433.910156 7.398438 433.402344 7.296875 432.996094 C 7.09375 431.949219 7.296875 430.898438 6.890625 429.917969 C 6.417969 428.730469 5.46875 428.019531 4.183594 427.953125 C 2.996094 427.917969 1.710938 428.765625 0.863281 429.542969 C 0.0546875 430.324219 1.066406 431.574219 2.050781 431.066406 C 2.691406 430.730469 3.742188 429.882812 4.519531 430.289062 C 5.230469 430.660156 5.230469 432.015625 5.332031 432.691406 C 5.46875 433.84375 5.808594 434.925781 6.855469 435.570312 C 7.769531 436.144531 8.886719 436.007812 9.496094 435.128906 Z M 9.496094 435.128906 " fill-opacity="1" fill-rule="nonzero"/><path fill="#eeeeee" d="M 29.804688 435.433594 C 28.316406 431.472656 23.679688 430.019531 20.292969 428.191406 C 18.636719 427.308594 17.011719 426.292969 16.0625 424.636719 C 14.742188 422.300781 15.386719 419.355469 13.898438 417.054688 C 12.679688 415.160156 10.410156 414.277344 8.210938 414.277344 C 5.671875 414.246094 3.269531 415.53125 1.304688 417.054688 C 0.898438 417.359375 1.339844 418.070312 1.777344 417.898438 C 4.351562 416.851562 7.058594 415.496094 9.902344 416.378906 C 11.085938 416.75 11.96875 417.527344 12.507812 418.644531 C 13.117188 419.828125 13.152344 421.320312 13.390625 422.605469 C 13.828125 424.90625 14.980469 426.734375 16.839844 428.15625 C 18.433594 429.410156 20.328125 430.222656 22.121094 431.101562 C 23.410156 431.710938 24.660156 432.386719 25.8125 433.199219 C 26.859375 433.976562 27.605469 434.960938 28.214844 436.109375 C 28.65625 436.957031 30.144531 436.382812 29.804688 435.433594 Z M 29.804688 435.433594 " fill-opacity="1" fill-rule="nonzero"/><path fill="#eeeeee" d="M 22.699219 406.019531 C 23.679688 408.492188 24.324219 411.128906 25.84375 413.332031 C 29.164062 418.203125 34.984375 420.234375 40.097656 422.605469 C 42.734375 423.859375 45.375 425.3125 47.375 427.480469 C 49.199219 429.441406 50.488281 432.050781 50.386719 434.789062 C 50.386719 435.09375 50.351562 435.398438 50.285156 435.703125 C 50.113281 436.753906 51.671875 437.195312 51.875 436.144531 C 52.449219 433.300781 51.671875 430.527344 50.113281 428.121094 C 48.492188 425.617188 46.121094 423.789062 43.582031 422.367188 C 38.605469 419.558594 32.714844 418.101562 28.65625 413.839844 C 24.964844 409.945312 25.234375 403.785156 21.175781 400.164062 C 19.109375 398.300781 16.234375 397.625 13.523438 397.691406 C 10.511719 397.792969 7.636719 398.945312 5.027344 400.402344 C 3.675781 401.144531 2.320312 401.957031 1.136719 402.9375 C 0.59375 403.414062 1.269531 404.089844 1.847656 403.851562 C 3.269531 403.242188 4.621094 402.398438 6.011719 401.6875 C 7.398438 401.011719 8.820312 400.402344 10.308594 399.996094 C 12.8125 399.285156 15.65625 399.25 18.058594 400.367188 C 20.464844 401.484375 21.785156 403.648438 22.699219 406.019531 Z M 22.699219 406.019531 " fill-opacity="1" fill-rule="nonzero"/><path fill="#eeeeee" d="M 18.636719 379.175781 C 21.140625 379.007812 23.78125 379.3125 26.117188 380.328125 C 28.453125 381.34375 30.28125 383.035156 31.601562 385.203125 C 32.917969 387.402344 33.628906 389.875 34.339844 392.3125 C 35.121094 394.847656 35.863281 397.421875 37.152344 399.757812 C 39.960938 405.003906 45.308594 408.117188 50.554688 410.554688 C 56.039062 413.09375 61.960938 415.191406 66.261719 419.59375 C 68.121094 421.523438 69.511719 423.859375 70.085938 426.496094 C 70.628906 428.96875 70.324219 431.644531 69.003906 433.84375 C 68.867188 434.078125 68.699219 434.28125 68.5625 434.484375 C 68.257812 434.890625 68.496094 435.535156 68.902344 435.804688 C 69.375 436.078125 69.882812 435.875 70.222656 435.46875 C 73.640625 430.898438 72.558594 424.5 69.339844 420.167969 C 65.71875 415.261719 60.101562 412.585938 54.652344 410.183594 C 49.371094 407.847656 43.617188 405.34375 40.128906 400.503906 C 37.015625 396.203125 36.507812 390.652344 34.375 385.878906 C 33.292969 383.441406 31.667969 381.308594 29.5 379.785156 C 27.300781 378.230469 24.660156 377.453125 21.988281 377.179688 C 15.996094 376.539062 10.207031 379.042969 5.164062 382.054688 C 3.808594 382.867188 2.488281 383.746094 1.167969 384.628906 C 0.390625 385.136719 1.066406 386.351562 1.914062 385.878906 C 7.128906 383.003906 12.542969 379.617188 18.636719 379.175781 Z M 18.636719 379.175781 " fill-opacity="1" fill-rule="nonzero"/><path fill="#eeeeee" d="M 44.460938 370.75 C 47.238281 375.046875 48.796875 380.023438 51.535156 384.390625 C 52.890625 386.554688 54.515625 388.484375 56.582031 390.042969 C 58.949219 391.804688 61.828125 392.71875 64.601562 393.53125 C 67.308594 394.308594 69.984375 395.050781 72.523438 396.304688 C 74.859375 397.488281 76.992188 398.980469 78.886719 400.738281 C 82.777344 404.328125 85.621094 409 86.941406 414.144531 C 87.652344 416.953125 87.890625 419.863281 87.753906 422.773438 C 87.6875 424.195312 87.519531 425.652344 87.28125 427.074219 C 87.042969 428.5625 86.605469 429.882812 86.027344 431.269531 C 85.519531 432.488281 84.84375 433.675781 84.167969 434.824219 C 83.558594 435.839844 85.183594 436.789062 85.757812 435.738281 C 87.179688 433.167969 88.058594 430.324219 88.839844 427.511719 C 89.617188 424.671875 89.851562 421.691406 89.648438 418.746094 C 89.242188 413.160156 87.214844 407.78125 83.828125 403.3125 C 80.578125 399.011719 76.246094 395.660156 71.304688 393.632812 C 68.597656 392.515625 65.71875 391.90625 62.945312 390.992188 C 60.335938 390.144531 57.933594 388.925781 56.003906 386.960938 C 52.449219 383.410156 50.722656 378.363281 48.59375 373.898438 C 47.441406 371.492188 46.15625 369.191406 44.496094 367.128906 C 42.804688 364.996094 40.804688 363.132812 38.605469 361.542969 C 34.207031 358.292969 28.890625 356.363281 23.441406 355.890625 C 17.789062 355.414062 12.035156 356.734375 7.027344 359.410156 C 4.792969 360.59375 2.726562 362.152344 0.933594 363.910156 C 0.222656 364.589844 1.269531 365.605469 1.980469 364.996094 C 6.179688 361.339844 11.425781 358.96875 16.941406 358.125 C 22.292969 357.34375 27.773438 358.15625 32.648438 360.460938 C 37.457031 362.726562 41.585938 366.316406 44.460938 370.75 Z M 44.460938 370.75 " fill-opacity="1" fill-rule="nonzero"/><path fill="#eeeeee" d="M 57.359375 353.925781 C 60.03125 358.835938 61.148438 364.417969 63.757812 369.394531 C 65.042969 371.867188 66.800781 374.066406 68.96875 375.859375 C 71.101562 377.585938 73.539062 378.90625 76.007812 380.089844 C 78.515625 381.277344 81.050781 382.324219 83.523438 383.578125 C 85.894531 384.796875 88.128906 386.25 90.191406 387.910156 C 94.355469 391.296875 97.773438 395.527344 100.246094 400.265625 C 102.886719 405.34375 104.308594 411.027344 104.476562 416.75 C 104.578125 419.761719 104.308594 422.773438 103.730469 425.71875 C 103.425781 427.207031 103.054688 428.664062 102.582031 430.121094 C 102.105469 431.542969 101.667969 432.964844 100.921875 434.28125 C 100.820312 434.453125 100.753906 434.585938 100.652344 434.757812 C 100.378906 435.230469 100.515625 435.875 101.023438 436.144531 C 101.632812 436.515625 102.277344 436.144531 102.511719 435.535156 C 102.785156 434.890625 102.988281 434.214844 103.292969 433.574219 C 103.628906 432.828125 103.933594 432.082031 104.207031 431.339844 C 104.714844 429.917969 105.121094 428.460938 105.457031 426.972656 C 106.132812 423.992188 106.472656 420.945312 106.507812 417.867188 C 106.539062 411.941406 105.222656 406.085938 102.714844 400.707031 C 100.414062 395.796875 97.097656 391.398438 93.101562 387.773438 C 91.070312 385.945312 88.871094 384.324219 86.535156 382.933594 C 84.167969 381.546875 81.628906 380.429688 79.125 379.3125 C 76.617188 378.195312 74.148438 377.011719 71.847656 375.523438 C 69.613281 374.03125 67.714844 372.136719 66.328125 369.835938 C 63.351562 365.027344 62.300781 359.34375 59.863281 354.296875 C 55.292969 344.789062 46.289062 337.441406 36.136719 334.667969 C 25.507812 331.789062 13.289062 334.058594 4.621094 340.894531 C 3.574219 341.707031 2.625 342.585938 1.710938 343.570312 C 1.203125 344.109375 1.949219 344.789062 2.488281 344.347656 C 4.65625 342.65625 6.957031 341.097656 9.359375 339.8125 C 11.796875 338.523438 14.335938 337.578125 16.976562 336.832031 C 22.191406 335.34375 27.808594 335.074219 33.121094 336.121094 C 43.34375 338.050781 52.382812 344.789062 57.359375 353.925781 Z M 57.359375 353.925781 " fill-opacity="1" fill-rule="nonzero"/><path fill="#eeeeee" d="M 51.875 322.648438 C 54.347656 324.953125 56.277344 327.625 58 330.503906 C 59.828125 333.582031 61.589844 336.730469 63.960938 339.472656 C 66.089844 341.945312 68.664062 344.007812 71.371094 345.800781 C 76.855469 349.425781 82.878906 352.097656 88.296875 355.789062 C 93.578125 359.375 98.246094 363.808594 102.277344 368.753906 C 110.671875 379.109375 115.679688 392.039062 116.492188 405.34375 C 117.101562 415.597656 115.410156 425.855469 111.3125 435.265625 C 111.078125 435.804688 111.144531 436.414062 111.6875 436.71875 C 112.125 436.992188 112.90625 436.890625 113.140625 436.347656 C 119.03125 423.011719 120.488281 407.847656 117.136719 393.664062 C 114.15625 380.972656 107.148438 369.261719 97.605469 360.425781 C 95.234375 358.226562 92.695312 356.226562 90.054688 354.367188 C 87.382812 352.503906 84.503906 350.914062 81.660156 349.390625 C 75.976562 346.308594 69.984375 343.332031 65.71875 338.289062 C 63.417969 335.582031 61.859375 332.363281 60.03125 329.316406 C 58.304688 326.375 56.308594 323.632812 53.839844 321.261719 C 49.132812 316.761719 43.140625 313.714844 36.878906 312.054688 C 25.269531 309.042969 12.847656 311.140625 1.878906 315.507812 C 1.371094 315.710938 1.035156 316.152344 1.203125 316.726562 C 1.339844 317.199219 1.914062 317.605469 2.421875 317.402344 C 9.5625 314.863281 17.078125 313.070312 24.695312 312.96875 C 31.429688 312.867188 38.132812 314.1875 44.15625 317.234375 C 46.898438 318.722656 49.539062 320.519531 51.875 322.648438 Z M 51.875 322.648438 " fill-opacity="1" fill-rule="nonzero"/><path fill="#eeeeee" d="M 121.570312 423.757812 C 121.164062 427.714844 121.398438 431.847656 122.078125 435.773438 C 122.246094 436.789062 123.835938 436.515625 123.835938 435.535156 C 123.835938 432.082031 123.464844 428.664062 123.667969 425.210938 C 123.835938 422.265625 124.445312 419.320312 125.664062 416.648438 C 126.851562 414.144531 128.578125 411.941406 130.980469 410.488281 C 133.179688 409.132812 135.820312 408.492188 138.359375 409 C 144.148438 410.214844 147.191406 416.175781 149.902344 420.8125 C 151.425781 423.417969 153.117188 425.886719 155.179688 428.054688 C 157.109375 430.085938 159.34375 431.878906 161.746094 433.335938 C 163.8125 434.621094 166.046875 435.636719 168.347656 436.414062 C 168.957031 436.617188 169.632812 436.179688 169.804688 435.601562 C 169.972656 434.960938 169.601562 434.351562 168.992188 434.148438 C 163.777344 432.421875 159.140625 429.238281 155.585938 425.078125 C 151.660156 420.472656 149.730469 414.449219 145.265625 410.285156 C 143.164062 408.320312 140.59375 406.96875 137.714844 406.59375 C 134.941406 406.257812 132.0625 407.136719 129.691406 408.59375 C 124.480469 411.839844 122.179688 417.933594 121.570312 423.757812 Z M 121.570312 423.757812 " fill-opacity="1" fill-rule="nonzero"/><path fill="#eeeeee" d="M 153.253906 435.773438 C 153.828125 435.230469 153.386719 434.28125 152.644531 434.25 C 152.101562 434.214844 151.628906 434.25 151.121094 434.046875 C 150.644531 433.875 150.238281 433.4375 149.96875 433.03125 C 149.191406 431.847656 149.15625 430.222656 148.953125 428.867188 C 148.511719 426.089844 147.464844 423.351562 145.601562 421.183594 C 143.84375 419.117188 141.167969 417.898438 138.460938 417.96875 C 135.683594 418.035156 133.28125 419.625 132.128906 422.164062 C 131.25 424.128906 131.082031 426.261719 131.183594 428.394531 C 131.25 429.644531 131.351562 430.863281 131.417969 432.117188 C 131.453125 432.691406 131.453125 433.269531 131.417969 433.875 C 131.386719 434.484375 131.316406 435.128906 131.554688 435.703125 C 131.65625 436.007812 132.027344 436.109375 132.265625 435.90625 C 132.808594 435.398438 133.011719 434.621094 133.113281 433.910156 C 133.214844 433.066406 133.28125 432.21875 133.316406 431.339844 C 133.347656 429.78125 133.214844 428.257812 133.316406 426.699219 C 133.484375 424.296875 134.195312 421.792969 136.496094 420.675781 C 138.460938 419.726562 141.167969 420.335938 142.828125 421.65625 C 144.925781 423.351562 146.007812 425.921875 146.582031 428.496094 C 146.921875 430.121094 146.988281 431.878906 147.667969 433.4375 C 147.363281 433.132812 146.753906 433.097656 146.550781 433.539062 C 146.347656 434.011719 145.703125 434.214844 145.230469 433.976562 C 144.417969 433.605469 144.046875 432.691406 143.808594 431.878906 C 143.503906 430.832031 143.335938 429.746094 142.792969 428.765625 C 142.320312 427.851562 141.507812 427.140625 140.523438 426.871094 C 138.695312 426.292969 136.734375 427.613281 135.957031 429.238281 C 134.972656 431.203125 135.480469 433.808594 136.429688 435.671875 C 136.632812 436.078125 137.277344 435.875 137.242188 435.433594 C 137.207031 433.605469 136.464844 431.304688 137.78125 429.746094 C 138.1875 429.238281 138.796875 428.800781 139.476562 428.730469 C 140.289062 428.664062 140.796875 429.273438 141.132812 429.949219 C 141.574219 430.832031 141.675781 431.878906 141.980469 432.792969 C 142.285156 433.808594 142.828125 434.789062 143.707031 435.433594 C 145.230469 436.515625 147.566406 435.90625 147.835938 433.910156 C 147.835938 433.875 147.835938 433.84375 147.835938 433.773438 C 147.9375 433.945312 148.039062 434.148438 148.140625 434.316406 C 149.089844 435.804688 151.628906 437.328125 153.253906 435.773438 Z M 153.253906 435.773438 " fill-opacity="1" fill-rule="nonzero"/><g clip-path="url(#7ff9a71a69)"><path fill="#eeeeee" d="M 10.679688 306.367188 C 13.726562 305.589844 16.773438 306.0625 19.855469 306.402344 C 22.699219 306.707031 25.574219 306.671875 28.148438 305.25 C 30.585938 303.898438 32.007812 301.359375 31.632812 298.582031 C 31.226562 295.503906 29.128906 293.167969 26.757812 291.339844 C 24.253906 289.410156 21.582031 287.652344 18.769531 286.160156 C 17.550781 285.519531 16.335938 284.839844 15.421875 283.824219 C 14.472656 282.777344 14.132812 281.21875 13.59375 279.96875 C 12.441406 277.429688 10.648438 275.226562 8.683594 273.296875 C 7.667969 272.316406 6.550781 271.402344 5.402344 270.589844 C 4.214844 269.710938 3.066406 269 1.8125 268.324219 C 1.371094 268.050781 0.898438 268.660156 1.269531 269.035156 C 2.285156 269.980469 3.300781 270.929688 4.386719 271.84375 C 5.433594 272.757812 6.519531 273.671875 7.535156 274.652344 C 9.53125 276.546875 11.257812 278.714844 12.40625 281.21875 C 13.015625 282.574219 13.421875 283.925781 14.40625 285.078125 C 15.320312 286.128906 16.605469 286.804688 17.824219 287.480469 C 20.597656 288.96875 23.339844 290.628906 25.8125 292.625 C 28.011719 294.421875 30.042969 296.789062 29.875 299.800781 C 29.703125 302.308594 27.367188 303.730469 25.203125 304.304688 C 22.257812 305.082031 19.109375 304.269531 16.132812 304.035156 C 13.117188 303.796875 10.140625 304.269531 7.363281 305.488281 C 5.402344 306.335938 3.539062 307.519531 2.015625 309.007812 C 1.101562 309.921875 2.488281 311.277344 3.4375 310.429688 C 5.46875 308.433594 7.90625 307.078125 10.679688 306.367188 Z M 10.679688 306.367188 " fill-opacity="1" fill-rule="nonzero"/></g><path fill="#eeeeee" d="M 3.199219 303.289062 C 3.234375 302.78125 3.234375 302.273438 3.472656 301.832031 C 3.777344 301.292969 4.386719 301.019531 4.960938 300.886719 C 6.519531 300.480469 8.210938 300.816406 9.765625 301.019531 C 12.644531 301.394531 16.097656 301.496094 18.261719 299.191406 C 19.175781 298.246094 19.71875 296.957031 19.683594 295.640625 C 19.652344 294.351562 18.941406 293.234375 17.992188 292.421875 C 17.042969 291.609375 15.859375 291.136719 14.742188 290.628906 C 13.457031 290.054688 12.238281 289.410156 11.054688 288.699219 C 9.394531 287.683594 7.90625 286.5 6.519531 285.179688 C 5.808594 284.503906 5.128906 283.859375 4.453125 283.183594 C 3.808594 282.539062 3.234375 281.589844 2.355469 281.320312 C 2.183594 281.285156 2.050781 281.386719 2.050781 281.558594 C 2.015625 282.199219 2.355469 282.742188 2.726562 283.25 C 3.132812 283.859375 3.574219 284.46875 4.046875 285.011719 C 4.960938 286.09375 5.976562 287.042969 7.09375 287.957031 C 9.328125 289.75 11.730469 291.101562 14.371094 292.21875 C 15.453125 292.660156 16.570312 293.167969 17.382812 294.015625 C 18.160156 294.828125 18.160156 296.046875 17.652344 297.027344 C 16.265625 299.699219 12.710938 299.464844 10.171875 299.191406 C 8.109375 298.988281 5.707031 298.683594 3.707031 299.464844 C 2.828125 299.800781 2.050781 300.410156 1.675781 301.324219 C 1.507812 301.765625 1.40625 302.171875 1.441406 302.644531 C 1.472656 303.222656 1.710938 303.558594 2.183594 303.898438 C 2.625 304.167969 3.167969 303.730469 3.199219 303.289062 Z M 3.199219 303.289062 " fill-opacity="1" fill-rule="nonzero"/><path fill="#eeeeee" d="M 2.660156 298.480469 C 2.488281 297.839844 2.964844 297.296875 3.539062 297.09375 C 4.554688 296.757812 5.773438 297.160156 6.789062 297.261719 C 7.769531 297.363281 8.820312 297.160156 9.632812 296.554688 C 10.578125 295.84375 10.917969 294.859375 10.75 293.742188 C 10.613281 292.761719 9.902344 291.882812 9.292969 291.171875 C 8.648438 290.425781 7.871094 289.78125 7.027344 289.308594 C 6.246094 288.835938 5.367188 288.496094 4.488281 288.226562 C 3.605469 287.988281 2.523438 287.820312 1.644531 288.089844 C 1.167969 288.226562 1.203125 288.871094 1.644531 289.003906 C 2.457031 289.273438 3.300781 289.410156 4.113281 289.679688 C 4.960938 289.953125 5.738281 290.425781 6.484375 290.933594 C 7.128906 291.40625 7.738281 291.984375 8.246094 292.625 C 8.617188 293.101562 9.359375 294.117188 8.851562 294.726562 C 8.347656 295.335938 7.398438 295.335938 6.652344 295.265625 C 5.535156 295.164062 4.519531 294.960938 3.402344 295.164062 C 1.574219 295.46875 0.0195312 297.601562 1.40625 299.226562 C 1.878906 299.835938 2.828125 299.191406 2.660156 298.480469 Z M 2.660156 298.480469 " fill-opacity="1" fill-rule="nonzero"/><path fill="#eeeeee" d="M 48.289062 332.769531 C 52.890625 335.714844 56.851562 339.40625 60.203125 343.703125 C 64.09375 348.679688 67.378906 354.128906 71.507812 358.9375 C 75.535156 363.605469 80.578125 367.195312 85.691406 370.648438 C 90.765625 374.066406 95.878906 377.519531 100.074219 382.054688 C 104.136719 386.421875 107.351562 391.632812 109.382812 397.253906 C 111.484375 403.039062 112.328125 409.203125 111.992188 415.363281 C 111.617188 421.726562 109.824219 427.851562 107.082031 433.574219 C 106.84375 434.078125 106.609375 434.621094 106.371094 435.128906 C 105.898438 436.109375 107.25 436.957031 107.859375 436.007812 C 111.246094 430.628906 112.9375 424.128906 113.546875 417.832031 C 114.15625 411.636719 113.410156 405.34375 111.515625 399.453125 C 109.6875 393.800781 106.84375 388.484375 103.089844 383.882812 C 99.261719 379.144531 94.390625 375.453125 89.414062 372 C 84.371094 368.515625 79.125 365.097656 74.859375 360.695312 C 70.425781 356.09375 67.308594 350.574219 63.65625 345.394531 C 61.929688 342.925781 60.066406 340.554688 58 338.355469 C 56.175781 336.425781 54.144531 334.667969 52.011719 333.074219 C 47.746094 329.894531 42.972656 327.457031 37.929688 325.730469 C 27.945312 322.3125 16.671875 321.804688 6.550781 324.882812 C 5.128906 325.324219 3.707031 325.898438 2.355469 326.507812 C 1.542969 326.882812 2.117188 328.269531 2.964844 327.964844 C 7.90625 326.171875 13.085938 325.019531 18.332031 324.714844 C 23.578125 324.445312 28.890625 325.054688 33.96875 326.40625 C 38.980469 327.796875 43.820312 329.925781 48.289062 332.769531 Z M 48.289062 332.769531 " fill-opacity="1" fill-rule="nonzero"/><path fill="#eeeeee" d="M 6.890625 350.878906 C 8.277344 350.371094 9.734375 349.964844 11.1875 349.59375 C 14.066406 348.882812 16.976562 348.542969 19.921875 348.476562 C 25.609375 348.375 31.328125 349.527344 36.507812 351.929688 C 41.3125 354.164062 45.578125 357.414062 49.097656 361.339844 C 50.859375 363.300781 52.347656 365.433594 53.667969 367.703125 C 55.089844 370.207031 56.140625 372.914062 57.390625 375.523438 C 58.644531 378.160156 60.203125 380.597656 62.367188 382.597656 C 64.367188 384.425781 66.769531 385.777344 69.136719 386.960938 C 71.574219 388.179688 74.078125 389.265625 76.515625 390.515625 C 78.921875 391.769531 81.1875 393.292969 83.253906 395.050781 C 87.382812 398.605469 90.664062 403.109375 92.765625 408.117188 C 95.101562 413.769531 95.914062 419.964844 95.203125 426.023438 C 94.863281 429.070312 94.117188 432.152344 93 434.992188 C 92.832031 435.398438 93.171875 435.875 93.578125 435.976562 C 94.050781 436.109375 94.421875 435.804688 94.558594 435.398438 C 95.742188 432.488281 96.554688 429.476562 96.960938 426.363281 C 97.367188 423.28125 97.332031 420.132812 96.929688 417.054688 C 96.183594 411.265625 94.015625 405.78125 90.699219 401.011719 C 87.550781 396.472656 83.457031 392.71875 78.71875 389.90625 C 74.113281 387.199219 68.867188 385.472656 64.738281 381.953125 C 62.570312 380.089844 61.015625 377.855469 59.796875 375.285156 C 58.507812 372.644531 57.527344 369.867188 56.175781 367.296875 C 53.636719 362.558594 50.113281 358.359375 45.953125 354.976562 C 41.6875 351.523438 36.746094 348.917969 31.429688 347.425781 C 25.574219 345.800781 19.378906 345.566406 13.421875 346.648438 C 11.425781 347.019531 9.460938 347.527344 7.535156 348.207031 C 6.550781 348.542969 5.570312 348.949219 4.621094 349.390625 C 3.707031 349.796875 2.828125 350.371094 1.980469 350.878906 C 1.035156 351.457031 1.847656 352.777344 2.828125 352.335938 C 4.113281 351.828125 5.503906 351.355469 6.890625 350.878906 Z M 6.890625 350.878906 " fill-opacity="1" fill-rule="nonzero"/><path fill="#eeeeee" d="M 7.160156 371.121094 C 8.820312 370.953125 10.476562 370.816406 12.136719 370.75 C 15.421875 370.613281 18.703125 370.816406 21.953125 371.492188 C 27.199219 372.542969 32.175781 374.945312 35.933594 378.738281 C 37.761719 380.597656 39.25 382.765625 40.230469 385.167969 C 41.382812 387.976562 42.058594 390.957031 43.617188 393.597656 C 46.222656 398.097656 51.128906 400.503906 55.632812 402.667969 C 57.96875 403.785156 60.269531 404.902344 62.4375 406.289062 C 64.601562 407.679688 66.53125 409.40625 68.191406 411.367188 C 71.574219 415.261719 73.808594 420.03125 74.890625 425.042969 C 75.570312 428.292969 75.703125 431.710938 75.195312 435.027344 C 75.128906 435.5 75.296875 436.007812 75.839844 436.144531 C 76.28125 436.28125 76.890625 436.007812 76.957031 435.5 C 78.546875 425.144531 74.417969 414.277344 66.429688 407.507812 C 62.46875 404.125 57.628906 402.226562 53.09375 399.722656 C 50.925781 398.503906 48.894531 397.117188 47.171875 395.324219 C 45.242188 393.292969 44.191406 390.753906 43.277344 388.148438 C 42.328125 385.441406 41.382812 382.765625 39.722656 380.394531 C 38.199219 378.195312 36.269531 376.335938 34.105469 374.742188 C 29.433594 371.289062 23.816406 369.53125 18.09375 368.988281 C 15.453125 368.753906 12.78125 368.753906 10.140625 368.957031 C 8.785156 369.058594 7.433594 369.191406 6.113281 369.429688 C 4.722656 369.664062 3.402344 370.003906 2.050781 370.34375 C 1.339844 370.511719 1.472656 371.730469 2.21875 371.664062 C 3.878906 371.390625 5.503906 371.289062 7.160156 371.121094 Z M 7.160156 371.121094 " fill-opacity="1" fill-rule="nonzero"/><path fill="#eeeeee" d="M 7.296875 394.511719 C 8.953125 394.105469 10.613281 393.628906 12.304688 393.191406 C 15.082031 392.445312 18.058594 391.566406 20.972656 391.972656 C 26.996094 392.820312 28.484375 399.453125 30.28125 404.257812 C 31.328125 407.101562 32.851562 409.675781 35.121094 411.707031 C 37.253906 413.636719 39.792969 415.058594 42.328125 416.34375 C 47.101562 418.78125 52.925781 421.285156 55.058594 426.597656 C 55.972656 428.902344 56.140625 431.542969 54.855469 433.707031 C 54.175781 434.859375 55.972656 435.90625 56.648438 434.757812 C 58.035156 432.386719 58.101562 429.542969 57.324219 426.9375 C 56.511719 424.230469 54.785156 421.960938 52.652344 420.167969 C 48.21875 416.410156 42.464844 414.71875 37.828125 411.230469 C 35.558594 409.507812 33.933594 407.273438 32.886719 404.664062 C 31.769531 401.921875 31.023438 399.011719 29.703125 396.371094 C 28.484375 393.902344 26.625 391.632812 24.050781 390.484375 C 21.175781 389.230469 17.957031 389.5 14.945312 390.179688 C 12.78125 390.652344 10.648438 391.296875 8.515625 391.90625 C 6.28125 392.515625 3.980469 393.125 1.8125 393.96875 C 0.730469 394.375 1.136719 395.863281 2.285156 395.695312 C 3.945312 395.390625 5.636719 394.917969 7.296875 394.511719 Z M 7.296875 394.511719 " fill-opacity="1" fill-rule="nonzero"/><path fill="#eeeeee" d="M 14.710938 410.554688 C 15.828125 411.199219 16.570312 412.179688 17.144531 413.332031 C 17.753906 414.550781 18.09375 415.871094 18.535156 417.15625 C 19.007812 418.476562 19.617188 419.726562 20.429688 420.914062 C 22.019531 423.214844 24.253906 425.042969 26.859375 426.125 C 29.296875 427.175781 32.039062 427.582031 34.273438 429.070312 C 36.066406 430.253906 37.386719 432.386719 36.710938 434.554688 C 36.542969 435.027344 36.878906 435.570312 37.355469 435.703125 C 37.894531 435.839844 38.335938 435.535156 38.503906 435.0625 C 39.519531 432.457031 37.726562 429.644531 35.730469 428.089844 C 33.324219 426.226562 30.210938 425.789062 27.503906 424.535156 C 25.066406 423.417969 23.035156 421.523438 21.714844 419.1875 C 20.328125 416.785156 20.023438 413.90625 18.667969 411.503906 C 17.113281 408.796875 14.203125 407.476562 11.1875 407.273438 C 7.871094 407.035156 4.488281 408.421875 1.644531 410.011719 C 0.863281 410.453125 1.371094 411.707031 2.253906 411.46875 C 5.199219 410.621094 8.042969 409.4375 11.1875 409.574219 C 12.441406 409.609375 13.660156 409.945312 14.710938 410.554688 Z M 14.710938 410.554688 " fill-opacity="1" fill-rule="nonzero"/><path fill="#eeeeee" d="M 11.5625 432.929688 C 11.832031 433.675781 12 434.554688 12.507812 435.164062 C 12.949219 435.703125 13.796875 435.230469 13.796875 434.621094 C 13.796875 433.84375 13.355469 432.996094 13.117188 432.285156 C 12.847656 431.441406 12.578125 430.59375 12.304688 429.78125 C 11.832031 428.324219 11.359375 426.902344 10.410156 425.6875 C 9.53125 424.570312 8.074219 423.960938 6.722656 423.757812 C 5.941406 423.621094 5.164062 423.621094 4.386719 423.65625 C 3.605469 423.6875 2.558594 423.757812 1.878906 424.164062 C 1.371094 424.46875 1.472656 425.246094 2.050781 425.414062 C 2.726562 425.617188 3.503906 425.449219 4.214844 425.449219 C 4.894531 425.449219 5.605469 425.414062 6.28125 425.550781 C 7.464844 425.753906 8.617188 426.261719 9.328125 427.242188 C 10.070312 428.292969 10.410156 429.644531 10.851562 430.863281 C 11.054688 431.507812 11.324219 432.21875 11.5625 432.929688 Z M 11.5625 432.929688 " fill-opacity="1" fill-rule="nonzero"/><g clip-path="url(#f36e950f1f)"><path fill="#eeeeee" d="M 711.410156 1.210938 L 712.273438 1.738281 C 719.675781 5.503906 725.011719 7.457031 728.28125 7.601562 C 736.304688 9.1875 750.886719 11.335938 772.03125 14.050781 C 775.277344 15.167969 780.789062 18.402344 788.5625 23.753906 C 791.292969 25.015625 797.941406 34.59375 808.519531 52.492188 C 815.5625 72.441406 820.8125 89.691406 824.269531 104.242188 C 828.90625 111.824219 832.1875 116.609375 834.105469 118.59375 C 841.835938 127.28125 852.394531 135.078125 865.785156 141.988281 C 886.238281 146.484375 900.886719 150.191406 909.734375 153.113281 C 915.53125 154.6875 921.621094 158.167969 928.003906 163.542969 C 939.613281 172.511719 947.3125 180.511719 951.105469 187.539062 C 953.886719 192.898438 956.726562 199.371094 959.621094 206.960938 L 959.667969 215.972656 C 958.859375 212.425781 957.023438 207.460938 954.160156 201.078125 C 950.328125 193.222656 946.269531 186.125 941.984375 179.789062 L 934.378906 172.445312 L 919.195312 159.9375 C 912.621094 156.285156 893.539062 150.820312 861.949219 143.542969 C 852 137.683594 842.449219 130.398438 833.296875 121.683594 C 827.910156 115.628906 823.464844 108.800781 819.953125 101.195312 C 814.148438 78.085938 809.972656 62.941406 807.421875 55.761719 C 799.289062 41.085938 791.816406 30.535156 785.007812 24.113281 C 783.566406 22.574219 778.257812 19.910156 769.085938 16.113281 C 742.816406 12.988281 726.863281 10.558594 721.222656 8.820312 C 716.320312 6.753906 711.210938 4.226562 705.890625 1.238281 Z M 711.410156 1.210938 " fill-opacity="1" fill-rule="nonzero"/></g><g clip-path="url(#b7afb635f4)"><path fill="#eeeeee" d="M 764.058594 0.9375 L 771.25 1.882812 C 776.8125 2.414062 779.65625 2.976562 779.78125 3.566406 C 784.183594 5.375 788.285156 7.660156 792.078125 10.425781 C 797.398438 14.285156 802.117188 19.664062 806.226562 26.5625 C 809.398438 31.507812 812.878906 37.589844 816.667969 44.808594 L 830.375 92.019531 C 834.1875 99.214844 837.742188 104.636719 841.042969 108.285156 C 854.945312 120.960938 865.359375 128.507812 872.277344 130.921875 C 910.246094 139.496094 930.144531 145.550781 931.976562 149.089844 C 936.75 152.277344 943.136719 159.097656 951.132812 169.546875 L 959.488281 181.316406 L 959.519531 187.375 C 953.960938 176.941406 949.804688 170.113281 947.046875 166.894531 C 941.164062 160.835938 933.957031 155.039062 925.425781 149.507812 C 922.601562 147.371094 919.375 145.765625 915.746094 144.695312 C 906.09375 141.789062 890.464844 137.707031 868.855469 132.453125 C 856.878906 125.546875 847.320312 118.367188 840.175781 110.910156 C 836.125 106.210938 832.433594 101.261719 829.105469 96.0625 L 813.359375 43.660156 C 809.011719 36.089844 805.199219 29.902344 801.921875 25.09375 C 798.109375 17.402344 790.972656 11.398438 780.503906 7.074219 L 775.582031 5.046875 C 765.457031 3.898438 755.320312 2.5625 745.175781 1.035156 L 764.058594 0.941406 Z M 764.058594 0.9375 " fill-opacity="1" fill-rule="nonzero"/></g><g clip-path="url(#e67ec8e295)"><path fill="#eeeeee" d="M 797.558594 0.765625 L 798.65625 1.523438 C 803.421875 5.027344 807.070312 8.441406 809.601562 11.761719 C 814.492188 18.347656 819.351562 25.695312 824.183594 33.804688 C 827.257812 41.65625 832.230469 58.550781 839.101562 84.492188 C 842.363281 90.910156 846.617188 97.027344 851.863281 102.835938 C 864.375 113.878906 874.140625 120.777344 881.152344 123.53125 C 906.824219 129.277344 923.9375 133.902344 932.496094 137.40625 C 938.589844 140.453125 947.550781 147.964844 959.378906 159.945312 L 959.402344 164.335938 C 946.242188 150.617188 937.382812 142.617188 932.824219 140.335938 C 930.476562 138.429688 912.921875 133.675781 880.148438 126.074219 C 871.96875 121.609375 866.675781 118.488281 864.269531 116.707031 C 854 110.105469 845.324219 100.71875 838.242188 88.539062 C 837.207031 86.632812 836.222656 84.667969 835.292969 82.648438 C 830.308594 62.550781 826.464844 48.4375 823.75 40.320312 C 812.3125 17.367188 801.816406 4.195312 792.265625 0.792969 Z M 797.558594 0.765625 " fill-opacity="1" fill-rule="nonzero"/></g><g clip-path="url(#720f82f6e9)"><path fill="#eeeeee" d="M 816.5 0.667969 L 816.996094 1.226562 C 817.453125 0.703125 822.628906 9.457031 832.523438 27.488281 C 834.136719 32.140625 838.460938 47.5 845.496094 73.570312 C 847.894531 78.976562 852.359375 85.175781 858.890625 92.171875 C 865 98.183594 873.679688 104.511719 884.9375 111.160156 L 887.648438 112.464844 C 900.59375 115.292969 912.511719 118.195312 923.402344 121.167969 C 928.378906 122.6875 932.378906 124.023438 935.40625 125.175781 C 949.640625 133.660156 957.601562 139.210938 959.285156 141.828125 L 959.304688 145.859375 C 958.605469 143.464844 950.25 137.273438 934.234375 127.289062 C 931.613281 126.15625 914.078125 121.292969 881.628906 112.699219 C 868.445312 104.707031 859.203125 97.328125 853.90625 90.5625 C 850.449219 86.527344 847.171875 82 844.074219 76.976562 L 841.824219 71.6875 C 837.742188 55.234375 833.675781 40.273438 829.621094 26.808594 C 823.027344 15.109375 817.441406 6.402344 812.863281 0.6875 Z M 816.5 0.667969 " fill-opacity="1" fill-rule="nonzero"/></g><g clip-path="url(#e25d1c6d23)"><path fill="#eeeeee" d="M 832.554688 0.585938 L 833.507812 2.203125 C 836.066406 6.613281 838.777344 11.847656 841.632812 17.910156 L 853.707031 62.136719 C 857.503906 69.78125 863.019531 77.078125 870.261719 84.027344 C 883.125 94.171875 891.195312 99.816406 894.46875 100.957031 C 921.234375 107.414062 937.394531 111.640625 942.957031 113.628906 C 944.269531 113.980469 945.40625 114.527344 946.367188 115.261719 L 959.191406 123.898438 L 959.210938 127.167969 C 950.292969 120.328125 943.746094 116.34375 939.574219 115.210938 C 934.882812 113.648438 920.085938 109.984375 895.183594 104.21875 C 888.273438 100.671875 882.011719 96.808594 876.398438 92.636719 L 872.3125 89.453125 C 869.667969 87.289062 867.1875 85.046875 864.871094 82.726562 C 862.9375 80.90625 860.394531 78.011719 857.242188 74.046875 C 856.320312 72.933594 854.035156 68.546875 850.382812 60.894531 C 843.710938 34.910156 839.667969 20.054688 838.253906 16.335938 C 836.410156 12.933594 833.277344 7.6875 828.859375 0.605469 Z M 832.554688 0.585938 " fill-opacity="1" fill-rule="nonzero"/></g><g clip-path="url(#da1d47613d)"><path fill="#eeeeee" d="M 844.695312 0.523438 L 845.285156 1.625 C 846.925781 4.046875 848.242188 7.203125 849.238281 11.097656 C 850.492188 14.824219 854.578125 29.058594 861.496094 53.804688 C 862.796875 56.773438 868.074219 63.585938 877.335938 74.246094 C 877.945312 75.46875 886.402344 80.925781 902.707031 90.621094 C 912.871094 92.28125 927.269531 95.917969 945.90625 101.527344 C 954.320312 104.757812 958.773438 107.269531 959.265625 109.0625 C 959.75 110.042969 959.703125 110.886719 959.128906 111.597656 C 953.832031 107.351562 949.007812 104.84375 944.660156 104.074219 C 933.734375 100.648438 919.417969 97.011719 901.703125 93.164062 C 887.152344 85.160156 877.742188 78.804688 873.476562 74.09375 C 864.746094 63.765625 859.40625 56.234375 857.457031 51.492188 C 851.066406 27.042969 847.410156 13.433594 846.492188 10.664062 C 845.523438 7.328125 844.578125 4.753906 843.660156 2.945312 L 842.15625 0.539062 Z M 844.695312 0.523438 " fill-opacity="1" fill-rule="nonzero"/></g><g clip-path="url(#4b75a13de2)"><path fill="#eeeeee" d="M 857.238281 0.460938 L 857.90625 2.660156 L 869.660156 44.328125 C 876.753906 56.503906 881.449219 63.160156 883.75 64.300781 C 891.300781 71.019531 900.578125 77.328125 911.582031 83.230469 C 938.925781 89.675781 954.75 93.921875 959.050781 95.972656 L 959.0625 98.726562 C 953.160156 96.121094 936.828125 91.742188 910.074219 85.582031 C 901.90625 81.863281 894.011719 76.492188 886.394531 69.472656 C 880.90625 64.371094 875.902344 58.886719 871.382812 53.027344 L 869.855469 51.070312 L 866.40625 44.097656 C 861.207031 24.402344 857.25 9.859375 854.53125 0.472656 Z M 857.238281 0.460938 " fill-opacity="1" fill-rule="nonzero"/></g><path fill="#eeeeee" d="M 866.933594 0.410156 L 867.714844 3.046875 C 869.789062 10.191406 872.589844 20.570312 876.113281 34.179688 C 877.125 36.488281 881.359375 42.214844 888.820312 51.359375 C 890.515625 52.972656 892.28125 54.554688 894.113281 56.105469 C 901.863281 62.652344 909.851562 68.003906 918.078125 72.164062 L 954.292969 80.761719 C 956.136719 81.226562 957.699219 81.824219 958.980469 82.546875 L 958.992188 85.148438 C 950.933594 82.71875 936.953125 79.234375 917.046875 74.695312 C 910.839844 71.546875 907.207031 69.570312 906.15625 68.765625 C 901.546875 65.914062 897.253906 62.769531 893.273438 59.335938 C 886.808594 54.082031 880.539062 46.542969 874.464844 36.710938 L 864.03125 0.425781 Z M 866.933594 0.410156 " fill-opacity="1" fill-rule="nonzero"/><path fill="#eeeeee" d="M 875.453125 0.367188 L 881.769531 22.882812 C 881.839844 23.714844 886.40625 29.785156 895.46875 41.089844 C 900.34375 45.5625 907.171875 50.472656 915.957031 55.8125 L 923.402344 60.15625 C 942.230469 64.320312 954.066406 67.195312 958.910156 68.78125 L 958.925781 71.773438 C 941.039062 66.832031 928.863281 63.804688 922.398438 62.699219 C 916.105469 59.152344 910.664062 55.84375 906.085938 52.78125 L 902.808594 50.527344 C 900.734375 49.054688 898.871094 47.644531 897.226562 46.292969 C 892.828125 42.5625 889.863281 39.625 888.332031 37.476562 C 886.214844 34.613281 882.90625 29.304688 878.398438 21.546875 L 872.835938 0.378906 Z M 875.453125 0.367188 " fill-opacity="1" fill-rule="nonzero"/><path fill="#eeeeee" d="M 885.210938 0.316406 L 885.5 1.441406 C 886.253906 4.386719 886.847656 6.878906 887.277344 8.917969 C 888.921875 12.195312 890.925781 15.632812 893.28125 19.230469 C 898.316406 26.59375 904.007812 32.476562 910.359375 36.875 C 913.898438 39.695312 920.410156 43.765625 929.898438 49.089844 L 958.84375 55.941406 L 958.855469 58.644531 L 926.054688 50.359375 C 924.207031 49.972656 920.140625 47.445312 913.863281 42.78125 C 909.160156 39.140625 902.316406 33.074219 893.335938 24.582031 C 891.515625 21.832031 888.429688 16.410156 884.074219 8.3125 L 882.042969 0.332031 Z M 885.210938 0.316406 " fill-opacity="1" fill-rule="nonzero"/><path fill="#eeeeee" d="M 895.703125 0.261719 L 895.9375 1.148438 C 896.640625 2.75 897.824219 4.867188 899.488281 7.503906 C 900.464844 9.191406 903.296875 13.292969 907.980469 19.808594 C 910.859375 22.601562 915.867188 26.652344 923.003906 31.960938 C 930.714844 37.203125 935.722656 40.351562 938.035156 41.402344 L 938.773438 41.695312 L 958.792969 46.273438 L 958.808594 49.117188 L 937.71875 44.214844 C 926.363281 37.328125 918.476562 32.308594 914.0625 29.144531 C 911.800781 27.683594 909.714844 25.761719 907.808594 23.375 C 902.953125 17.707031 899.824219 13.644531 898.417969 11.195312 C 894.679688 5.039062 892.800781 1.398438 892.78125 0.277344 Z M 895.703125 0.261719 " fill-opacity="1" fill-rule="nonzero"/><path fill="#eeeeee" d="M 908.082031 0.199219 L 908.328125 0.59375 C 909.683594 2.808594 911.789062 5.566406 914.640625 8.867188 C 916.960938 11.222656 921.589844 15.117188 928.519531 20.550781 L 945.269531 30.628906 L 958.726562 33.550781 L 958.742188 36.453125 L 951.105469 35.324219 C 943.625 32.789062 937.132812 29.816406 931.636719 26.40625 C 930.367188 25.585938 929.183594 24.746094 928.078125 23.886719 L 920.726562 17.40625 C 914.179688 11.558594 910.035156 7.613281 908.296875 5.570312 C 906.933594 3.878906 905.828125 2.09375 904.976562 0.214844 Z M 908.082031 0.199219 " fill-opacity="1" fill-rule="nonzero"/><path fill="#eeeeee" d="M 926.320312 0.105469 L 927.75 1.421875 C 933.621094 6.695312 938.785156 10.949219 943.25 14.183594 C 944.90625 15.257812 947.117188 16.445312 949.882812 17.742188 C 952.644531 18.894531 955.570312 19.953125 958.664062 20.925781 C 958.898438 21.851562 958.929688 22.539062 958.757812 22.992188 C 958.359375 23.515625 957.746094 23.757812 956.914062 23.726562 C 955.777344 23.441406 954.183594 22.902344 952.132812 22.105469 C 947.921875 19.941406 944.683594 18.082031 942.414062 16.535156 C 935.210938 11.964844 928.96875 7.128906 923.683594 2.035156 C 923.09375 1.429688 922.492188 0.796875 921.878906 0.128906 Z M 926.320312 0.105469 " fill-opacity="1" fill-rule="nonzero"/><path fill="#eeeeee" d="M 945.378906 0.0078125 L 946.765625 0.921875 C 950.484375 3.347656 954.429688 5.644531 958.597656 7.816406 L 958.613281 10.953125 C 955.835938 9.769531 951.917969 7.496094 946.855469 4.140625 L 940.898438 0.0273438 Z M 945.378906 0.0078125 " fill-opacity="1" fill-rule="nonzero"/></svg>